<?xml version="1.0" encoding="utf-8"?>
<!-- Generator: Adobe Illustrator 19.0.0, SVG Export Plug-In . SVG Version: 6.00 Build 0)  -->
<svg version="1.1" id="Layer_1" xmlns="http://www.w3.org/2000/svg" xmlns:xlink="http://www.w3.org/1999/xlink" x="0px" y="0px"
	 width="16.8px" height="24.5px" viewBox="0 0 16.8 24.5" style="enable-background:new 0 0 16.8 24.5;" xml:space="preserve">
    <style type="text/css">
        .st0{opacity:1;fill:none;stroke:#FFFFFF;stroke-width:1.5;stroke-miterlimit:10;}
        .st1{opacity:1;fill:#FFFFFF;}
        @keyframes scroll-mouse {
          0%   {transform: translateY(-2px)}
          15%  {transform: translateY(2px)}
          25%  {transform: translateY(-2px)}
          35%   {transform: translateY(2px)}
          45%  {transform: translateY(-2px)}
          100% {transform: translateY(-2px)}
        }
        .mouse-wheel {
          animation: scroll-mouse 2s linear infinite;
        }
    </style>
    <path id="XMLID_1_" class="st0" d="M8.4,23.2L8.4,23.2c-3.9,0-7-3.1-7-7v-8c0-3.8,3.1-7,7-7h0c3.8,0,7,3.1,7,7v8
    	C15.4,20.1,12.2,23.2,8.4,23.2z"/>
    <path id="XMLID_80_" class="st1 mouse-wheel" d="M8.6,14.7H8.1c-0.5,0-1-0.4-1-1v-3c0-0.6,0.4-1,1-1h0.5c0.5,0,1,0.4,1,1v3
    	C9.6,14.3,9.2,14.7,8.6,14.7z"/>
</svg>
